<?xml version="1.0" encoding="UTF-8"?>
<svg width="31px" height="32px" viewBox="0 0 31 32" version="1.1" xmlns="http://www.w3.org/2000/svg" xmlns:xlink="http://www.w3.org/1999/xlink">
    <!-- Generator: Sketch 54.1 (76490) - https://sketchapp.com -->
    <title>Insta</title>
    <desc>Created with Sketch.</desc>
    <g id="Everything" stroke="none" stroke-width="1" fill="none" fill-rule="evenodd">
        <g id="m-00-Landing-v3" transform="translate(-75.000000, -8779.000000)" fill="#F9F7F3">
            <path d="M84.1040712,8779.09514 C85.7562436,8779.01871 86.2842175,8779 90.4909463,8779 L90.4861058,8779 C94.6941658,8779 95.2200825,8779.01871 96.8723759,8779.09514 C98.5214019,8779.17194 99.6475366,8779.43754 100.635113,8779.82708 C101.654757,8780.22917 102.51636,8780.76738 103.377963,8781.64369 C104.239688,8782.51938 104.768872,8783.39828 105.16579,8784.43446 C105.546614,8785.43618 105.807999,8786.58092 105.885446,8788.25809 C105.959626,8789.93858 105.978988,8790.47545 105.978988,8794.75397 C105.978988,8799.03249 105.959626,8799.56812 105.885446,8801.24862 C105.807999,8802.92505 105.546614,8804.07015 105.16579,8805.07225 C104.768872,8806.10806 104.239688,8806.98695 103.377963,8807.86265 C102.517328,8808.73895 101.654515,8809.27852 100.636081,8809.68098 C99.6504409,8810.07052 98.5235802,8810.336 96.8746751,8810.4128 C95.2223817,8810.48935 94.6961019,8810.50806 90.4890101,8810.50806 C86.2826444,8810.50806 85.7550335,8810.48935 84.1027401,8810.4128 C82.454077,8810.336 81.3281844,8810.07052 80.3426654,8809.68098 C79.3244732,8809.27852 78.4603288,8808.73895 77.5996938,8807.86265 C76.7383327,8806.98695 76.2091486,8806.10806 75.8131984,8805.07188 C75.4304385,8804.07015 75.1694163,8802.92542 75.093542,8801.24825 C75.0187568,8799.56788 75,8799.03249 75,8794.75397 C75,8790.47545 75.0193619,8789.93822 75.0933,8788.25772 C75.1674802,8786.58129 75.4288654,8785.43618 75.8128354,8784.43409 C76.2097537,8783.39828 76.7390588,8782.51938 77.6006619,8781.64369 C78.4616599,8780.76775 79.3258043,8780.22942 80.3446016,8779.82708 C81.3295156,8779.43754 82.4550451,8779.17194 84.1040712,8779.09514 Z M89.1014903,8781.83902 L89.1014903,8781.83508 C86.2146358,8781.8384 85.6607654,8781.85809 84.2318595,8781.92369 C82.7216339,8781.99434 81.9016588,8782.25034 81.3556541,8782.46695 C80.6328514,8782.75311 80.1164946,8783.09452 79.5743623,8783.64591 C79.03223,8784.19729 78.6959385,8784.72234 78.4151914,8785.4576 C78.203179,8786.01292 77.9508696,8786.84652 77.881772,8788.38252 C77.8075918,8790.04332 77.7927074,8790.53957 77.7927074,8794.74646 C77.7927074,8798.95348 77.8075918,8799.45243 77.881772,8801.11311 C77.9505066,8802.64911 78.203179,8803.48283 78.4151914,8804.03742 C78.6966646,8804.77292 79.03223,8805.29674 79.5743623,8805.84812 C80.1164946,8806.39951 80.6328514,8806.74092 81.3556541,8807.02646 C81.9020218,8807.24209 82.7216339,8807.49871 84.2318595,8807.5696 C85.8647911,8807.64517 86.3550093,8807.66154 90.4910673,8807.66154 C94.6267623,8807.66154 95.1172226,8807.64517 96.7501541,8807.5696 C98.2603798,8807.49945 99.0807179,8807.24345 99.6259965,8807.02683 C100.349162,8806.74129 100.863946,8806.39988 101.406078,8805.84849 C101.948211,8805.29748 102.284502,8804.77391 102.565249,8804.03877 C102.777261,8803.48406 103.029571,8802.65046 103.098668,8801.11446 C103.172849,8799.45366 103.188943,8798.95483 103.188943,8794.7504 C103.188943,8790.54609 103.172849,8790.04726 103.098668,8788.38646 C103.029934,8786.85046 102.777261,8786.01686 102.565249,8785.46215 C102.283776,8784.72702 101.948211,8784.20185 101.406078,8783.65046 C100.864188,8783.09908 100.34892,8782.75766 99.6259965,8782.47212 C99.0799918,8782.25649 98.2603798,8781.99988 96.7501541,8781.9296 C95.1169805,8781.85415 94.6267623,8781.83902 90.4910673,8781.83902 L89.9747105,8781.83889 C89.6615323,8781.83877 89.3712253,8781.83865 89.1014903,8781.83902 Z M98.7593109,8784.45489 L98.7593109,8784.45428 C99.7854899,8784.45428 100.61805,8785.30105 100.61805,8786.34474 C100.61805,8787.38843 99.7854899,8788.2352 98.7593109,8788.2352 C97.7331319,8788.2352 96.9004506,8787.38843 96.9004506,8786.34474 C96.9004506,8785.30068 97.7331319,8784.45489 98.7593109,8784.45489 Z M82.536486,8794.75409 C82.536486,8790.28628 86.0978595,8786.66388 90.4907043,8786.66375 C94.88367,8786.66375 98.4443175,8790.28615 98.4443175,8794.75409 C98.4443175,8799.22203 94.8839121,8802.84283 90.4910673,8802.84283 C86.0981016,8802.84283 82.536486,8799.22203 82.536486,8794.75409 Z M90.4909463,8789.50265 C87.6393062,8789.50265 85.3277412,8791.85366 85.3277412,8794.75397 C85.3277412,8797.65403 87.6393062,8800.00529 90.4909463,8800.00529 C93.3423444,8800.00529 95.6541514,8797.65403 95.6541514,8794.75397 C95.6541514,8791.85366 93.3423444,8789.50265 90.4909463,8789.50265 Z" id="Insta"></path>
        </g>
    </g>
</svg>