<?xml version="1.0" encoding="UTF-8"?>
<svg width="127px" height="108px" viewBox="0 0 127 108" version="1.1" xmlns="http://www.w3.org/2000/svg" xmlns:xlink="http://www.w3.org/1999/xlink">
    <!-- Generator: Sketch 54.1 (76490) - https://sketchapp.com -->
    <title>Combined Shape Copy</title>
    <desc>Created with Sketch.</desc>
    <g id="Page-1" stroke="none" stroke-width="1" fill="none" fill-rule="evenodd">
        <g id="colors" transform="translate(-164.000000, -543.000000)" fill="#F9F9F9">
            <path d="M258.557421,629.845751 C259.972628,632.909938 257.03664,637.106868 255.69433,638.973007 C250.493509,646.211519 241.79866,650.599333 230.215583,650.895705 C218.906499,651.182031 209.910008,646.846961 203.879669,640.648263 C202.318669,639.055891 199.365085,635.941472 198.972949,632.940077 C198.683875,630.689658 199.719515,628.893845 201.531884,628.775798 C203.112994,628.67031 204.304482,629.880914 204.322078,631.460728 C204.332133,632.804449 203.29398,632.618589 203.216055,633.894496 C203.165782,634.720821 204.306996,636.054496 205.056075,636.858217 C207.300799,639.274403 210.759634,641.683054 213.569938,643.094589 C217.611949,645.129007 223.149605,646.538031 229.496669,646.487798 C240.240173,646.402403 248.691194,642.813286 253.597914,636.280542 C254.201199,635.491891 255.468098,633.9171 255.385146,633.20631 C255.317277,632.553286 254.824594,632.709007 254.427431,632.309658 C253.223374,631.096542 253.912125,628.612542 255.867775,628.336263 C257.237735,628.145379 258.145176,628.951612 258.557421,629.845751 Z M230.215835,566.417351 C231.349508,564.998282 231.927657,562.715212 231.910061,559.884607 C231.879897,556.406003 230.389279,554.080235 227.181813,554.107863 C225.221136,554.120421 223.544506,554.896514 222.674769,555.559584 L222.775317,567.404421 C222.775317,567.404421 223.652594,568.594933 225.992838,568.579863 C227.403017,568.562282 229.087189,567.889165 230.215835,566.417351 Z M228.574396,551.053724 C232.427881,551.021072 236.10038,553.492514 236.14814,559.417445 C236.17579,563.059305 235.107473,565.839677 233.217179,567.751026 C231.442515,569.559398 228.893635,570.561538 226.063221,570.589165 C224.703316,570.599212 223.559588,570.169724 222.790399,569.908514 L222.838159,575.725445 L222.86581,578.111491 C223.564615,578.056235 223.941668,577.995956 224.655556,577.990933 C225.2513,577.98591 225.475018,578.420421 225.475018,578.799677 L225.485073,579.342189 C224.826487,579.455212 223.089528,579.46777 220.749284,579.492886 C219.768945,579.49791 217.48903,579.565724 216.076337,579.422561 L216.066282,578.877538 C216.066282,578.49577 216.171857,578.224514 216.762574,578.211956 C217.745426,578.101445 218.725765,577.928142 218.705655,575.808328 L218.544779,556.295491 C218.537238,554.667956 217.712748,554.185724 216.898313,553.969724 C216.571534,553.869258 215.372504,553.879305 215.372504,553.879305 L215.314689,553.444793 C215.312176,553.068049 215.312176,552.844514 215.739503,552.681258 C216.284973,552.455212 218.240623,551.842375 222.262524,550.890468 C222.262524,550.890468 222.599359,552.131212 222.657174,553.43977 C224.444406,552.116142 226.339727,551.068793 228.574396,551.053724 Z M256.09652,551.102449 C256.96877,551.097426 259.794156,550.96431 260.339626,551.069798 L260.344654,551.617333 C260.347167,551.994077 260.347167,552.373333 259.42213,552.383379 C258.936988,552.388403 258.019492,552.825426 258.022006,554.234449 L258.029547,554.83724 L258.145176,568.749147 C258.575017,568.686356 259.233603,568.578356 259.66093,568.575845 C260.317003,568.570821 260.417551,568.950077 260.427605,569.326821 L260.430119,569.871845 C260.05558,570.037612 257.117078,570.017519 256.252369,570.020031 C255.377605,570.027565 252.878999,570.100403 251.783031,569.947193 L251.780517,569.344403 C251.77549,568.960124 251.888606,568.801891 252.592438,568.731565 C253.301299,568.681333 254.005131,568.405054 253.992563,566.777519 L253.912125,556.771193 L245.345474,566.790077 L245.358043,568.854635 C245.792911,568.796868 246.338381,568.686356 246.878824,568.67631 C247.587685,568.671286 247.705828,569.103286 247.705828,569.492589 L247.708342,569.97231 C247.328775,570.138077 244.174096,570.117984 243.304359,570.120496 C242.429596,570.128031 239.279944,570.200868 238.407694,570.052682 L238.402667,569.505147 C238.400153,569.130914 238.395126,568.801891 239.370437,568.796868 C240.40859,568.621054 241.223025,568.22924 241.207943,566.938263 L241.109909,554.272124 L241.092314,552.473798 C240.818322,552.473798 239.790223,552.596868 239.3453,552.601891 C238.538406,552.601891 238.314688,552.054356 238.314688,551.843379 L238.30966,551.245612 C239.068794,551.074821 241.625216,551.217984 243.103264,551.207938 C243.962946,551.202914 247.062324,550.956775 247.828999,551.16524 L247.831512,551.657519 C247.839053,552.034263 247.942115,552.416031 247.017077,552.428589 C246.099581,552.491379 245.227331,552.765147 245.237386,554.287193 L245.322851,564.122728 L253.892015,554.053612 L253.871906,552.36831 C253.605455,552.373333 252.951896,552.486356 252.519541,552.491379 C251.757894,552.501426 251.476361,552.061891 251.476361,551.685147 L251.476361,551.140124 C252.393857,551.022077 255.219243,551.104961 256.09652,551.102449 Z M216.153507,549.412375 C215.721153,549.41991 215.660824,549.040654 215.660824,548.666421 C215.660824,548.332375 215.537654,547.086607 214.926827,546.215072 C214.381357,545.356096 213.564408,544.86884 211.817395,544.878886 L207.906095,544.916561 L208.099649,568.932747 C208.584791,568.932747 209.022173,568.822235 209.889396,568.812189 C210.598256,568.807165 210.814433,569.299445 210.824488,569.5707 L210.827001,570.273956 C210.067867,570.334235 208.217793,570.402049 205.875035,570.424654 C205.115901,570.429677 201.966249,570.555258 200.875309,570.354328 L200.870281,569.869584 C200.867768,569.269305 201.083945,569.209026 201.629415,569.098514 C202.710301,568.822235 203.580037,568.593677 203.559928,566.418607 L203.388997,545.059724 C201.104054,544.969305 200.453009,544.974328 200.337379,544.981863 C199.093103,544.986886 198.117792,545.215445 197.517021,545.546979 C196.217444,546.25777 195.475906,548.066142 195.201914,548.769398 C195.046065,549.20391 194.993278,549.585677 194.18387,549.5907 L193.630858,549.5907 C193.633372,549.540468 193.791734,548.2947 193.842008,548.018421 C194.045617,546.662142 194.352287,544.431817 194.462889,543.937026 C194.563437,543.397026 194.89273,543.176003 195.322571,543.176003 L216.535588,543.000189 C217.350023,542.992654 217.350023,543.211165 217.35505,543.58791 C217.370132,545.220468 217.287181,548.209305 216.97297,549.412375 L216.153507,549.412375 Z M174.062799,607.530691 C176.018449,607.51311 178.192789,606.900272 179.708543,606.021203 L180.422431,607.422691 C180.422431,607.422691 176.805233,610.499435 172.288135,610.534598 C170.712052,610.549668 169.296846,610.180458 168.145576,609.587714 C165.199533,608.03804 164.025641,604.785482 164.000504,601.585668 C163.97034,597.391249 165.295053,594.018133 167.838906,592.151993 C169.296846,591.044365 171.09916,590.426505 173.321261,590.413947 C174.902371,590.4039 177.51158,590.599807 179.044929,591.785296 C179.758817,592.320272 180.198713,593.078784 180.206254,594.163807 C180.223849,596.456924 178.43159,596.951714 177.242615,596.956738 C176.370365,596.964272 175.601176,596.544831 175.601176,596.544831 C175.359862,593.55097 174.429797,592.526226 172.740599,592.536272 C170.563745,592.553854 168.253665,595.291528 168.29137,600.57097 C168.33913,605.787621 171.018722,607.558319 174.062799,607.530691 Z M211.700759,607.229045 C213.658923,607.211463 215.828236,606.596114 217.341476,605.712021 L218.060391,607.118533 C218.060391,607.118533 214.44068,610.197789 209.928609,610.232951 C208.350013,610.242998 206.934806,609.8763 205.78605,609.286068 C202.837494,607.736393 201.668629,604.483835 201.638464,601.278998 C201.613328,597.092114 203.04613,593.603463 205.700585,591.734812 C207.161038,590.742719 208.840182,590.124858 210.966762,590.117324 C212.540331,590.097231 215.152054,590.298161 216.680376,591.478626 C217.399291,592.018626 217.839187,592.774626 217.839187,593.859649 C217.864324,596.147742 216.077091,596.645045 214.875548,596.655091 C214.005812,596.662626 213.246678,596.238161 213.246678,596.238161 C212.997823,593.249324 212.067758,592.219556 210.381073,592.237138 C208.204219,592.252207 205.886598,594.98737 205.931844,600.261789 C205.974577,605.480951 208.656683,607.256672 211.700759,607.229045 Z M275.717367,606.549649 C276.629836,605.612812 277.059677,604.362021 277.047108,602.895231 C277.032026,601.157184 276.25781,599.263417 273.703903,599.280998 C272.178094,599.291045 270.981578,599.740626 270.174684,600.122393 L270.224958,607.026858 C270.174684,607.026858 271.054475,607.780347 272.467168,607.767789 C273.550568,607.762765 274.797357,607.421184 275.717367,606.549649 Z M275.31015,596.822114 C276.830931,596.809556 278.585486,597.176254 279.79457,598.52751 C280.609005,599.496998 281.056441,600.79551 281.063983,602.104068 C281.086606,604.490114 280.174137,606.185463 279.100792,607.170021 C277.476949,608.707138 274.98337,609.274765 272.806516,609.292347 C266.544918,609.342579 263.724559,608.978393 263.724559,608.978393 L263.717018,608.438393 C263.709477,607.951138 263.872867,607.732626 264.471125,607.672347 C265.443922,607.556812 266.102509,607.494021 266.082399,605.374207 L265.971797,591.628068 C265.426326,591.633091 264.986431,591.685835 264.443474,591.690858 C263.742155,591.698393 263.631553,591.321649 263.626525,590.939882 L263.621498,590.389835 C264.327845,590.224068 266.499671,590.372254 267.967665,590.354672 C268.847456,590.349649 271.612514,590.118579 272.484764,590.329556 L272.487277,590.914765 C272.487277,591.304068 272.487277,591.575324 271.522021,591.690858 C270.536655,591.80137 270.104301,592.132905 270.119383,593.609742 L270.162116,598.28137 C270.80562,597.9423 272.484764,596.842207 275.31015,596.822114 Z M289.799301,591.543426 C289.0829,591.59617 288.386608,591.982961 288.401691,593.673286 L288.514807,607.748449 C289.216126,607.690682 289.542905,607.630403 289.982801,607.630403 C290.576031,607.620356 290.852537,607.949379 290.857564,608.549658 L290.857564,608.976635 C289.824438,609.152449 287.328346,609.009286 286.458609,609.01431 C285.25958,609.026868 283.193328,609.205193 282.157688,609.051984 L282.150147,608.511984 C282.150147,608.125193 282.150147,607.848914 282.962069,607.79617 C283.831805,607.730868 284.377275,607.346589 284.354652,605.711519 L284.24405,591.480635 C283.975085,591.480635 283.268739,591.543426 282.828843,591.543426 C282.393975,591.543426 282.014408,591.337472 282.006867,590.842682 L282.00184,590.242403 C283.039993,590.074124 285.106245,590.217286 286.305274,590.20724 C287.175011,590.202217 289.613288,590.021379 290.706743,590.172077 L290.714284,590.714589 C290.714284,591.101379 290.714284,591.425379 289.799301,591.543426 Z M188.096722,594.813063 C187.508519,595.900598 187.196821,597.201621 186.985671,598.407203 C186.985671,598.407203 193.340276,597.377435 194.157225,597.201621 L194.154711,596.827389 C194.14717,596.224598 194.081814,594.923575 193.702247,594.054551 C193.307598,593.135296 192.7571,592.379296 191.449982,592.391854 C190.147892,592.4019 188.843287,593.444226 188.096722,594.813063 Z M192.550978,607.494272 C194.292964,607.471668 197.16611,606.690551 198.415413,605.871761 L199.131814,607.270738 C196.701077,609.252412 193.229674,610.365063 190.836642,610.387668 C185.668499,610.430365 182.644531,606.758365 182.601799,601.265435 C182.571634,597.244319 183.906403,593.755668 186.54829,591.831761 C187.958469,590.842179 189.801003,590.279575 191.59829,590.264505 C196.874522,590.224319 198.752247,593.793342 198.629077,598.748784 L186.887638,600.147761 L186.897692,600.845993 C186.927857,604.610924 188.747767,607.5219 192.550978,607.494272 Z M237.835327,590.545305 C238.546701,590.545305 238.710091,590.814049 238.717632,591.303817 L238.7302,593.313119 C238.740255,594.727165 238.700036,595.754421 238.594461,596.849491 L238.164621,596.849491 C237.563849,596.859538 237.184282,596.754049 237.176741,595.990514 C237.166686,595.013491 236.661435,592.401398 233.715392,592.429026 L231.488264,592.449119 L231.611435,608.267351 C232.383137,608.146793 232.865765,608.091538 233.242818,608.086514 C234.00698,608.081491 234.122609,608.510979 234.125123,608.892747 L234.130151,609.385026 C233.315715,609.447817 231.571216,609.508096 229.613052,609.5307 C228.74583,609.535724 226.189409,609.613584 225.098468,609.513119 L225.09344,608.91284 C225.09344,608.48084 225.46798,608.259817 226.066238,608.259817 C226.501106,608.252282 227.099364,608.081491 227.318055,607.325491 C227.413575,606.993956 227.468876,606.556933 227.463849,605.908933 L227.35576,592.476747 L225.560986,592.494328 C223.874301,592.506886 222.735601,593.333212 221.986521,594.373026 C221.604441,594.978328 221.395805,595.681584 221.182141,596.389863 C221.026292,596.932375 220.757328,596.987631 220.317432,596.995165 L219.668901,597.000189 C219.716661,596.460189 219.817208,595.151631 219.973057,594.22484 C220.123878,593.134793 220.279727,592.15777 220.49339,591.338979 C220.593938,590.901956 220.872957,590.683445 221.363127,590.683445 L237.835327,590.545305 Z M255.361266,605.516868 C256.497453,604.092775 257.078116,601.807193 257.055492,598.976589 C257.022814,595.500496 255.539738,593.179751 252.332272,593.202356 C250.374108,593.217426 248.689937,593.991007 247.827742,594.654077 L247.918235,606.448682 C247.918235,606.448682 248.800539,607.689426 251.140783,607.666821 C252.553476,607.659286 254.235134,606.996217 255.361266,605.516868 Z M253.724855,590.148217 C257.580853,590.115565 261.245811,592.581984 261.288544,598.506914 C261.323735,602.151286 260.257931,604.93417 258.372665,606.850542 C256.587946,608.658914 254.04158,609.651007 251.208653,609.676124 C249.84372,609.688682 248.702505,609.321984 247.943372,609.050728 L248.011241,617.200961 C248.715074,617.148217 249.097155,617.090449 249.806015,617.085426 C250.396732,617.075379 250.62045,617.514914 250.627991,617.899193 L250.627991,618.439193 C249.981973,618.547193 248.239987,618.512031 245.897229,618.532124 C244.919404,618.539658 242.636975,618.66524 241.224282,618.517054 L241.216741,617.969519 C241.2092,617.582728 241.319802,617.316496 241.913033,617.308961 C242.895885,617.195938 243.871196,617.022635 243.8536,614.907845 L243.695238,595.392496 C243.68267,593.754914 242.860693,593.280217 242.048772,593.06924 C241.719479,592.968775 240.520449,592.973798 240.520449,592.973798 L240.465148,592.536775 C240.460121,592.157519 240.460121,591.939007 240.897503,591.775751 C241.435432,591.55724 243.386054,590.936868 247.412983,589.987472 C247.412983,589.987472 247.752331,591.225705 247.807632,592.534263 C249.592351,591.215658 251.490186,590.165798 253.724855,590.148217 Z" id="Combined-Shape-Copy"></path>
        </g>
    </g>
</svg>