<?xml version="1.0" encoding="UTF-8"?>
<svg width="72px" height="28px" viewBox="0 0 72 28" version="1.1" xmlns="http://www.w3.org/2000/svg" xmlns:xlink="http://www.w3.org/1999/xlink">
    <!-- Generator: Sketch 54.1 (76490) - https://sketchapp.com -->
    <title>Fill 1</title>
    <desc>Created with Sketch.</desc>
    <g id="Everything" stroke="none" stroke-width="1" fill="none" fill-rule="evenodd">
        <g id="Artboard" transform="translate(-24.000000, -16.000000)" fill="#111D4A">
            <path d="M95.5484598,18.2029887 C95.0538389,17.1225427 93.9650698,16.1483203 92.3213602,16.3789773 C89.9749271,16.712823 89.1485483,19.7143992 90.5932032,21.1802852 C91.0697282,21.662844 91.6608604,21.4746764 91.7422919,22.2637662 C91.8418193,23.1226601 90.3217649,25.0255805 89.5979295,25.9785582 C83.7107348,33.8724911 73.571007,38.2094501 60.6807046,38.3126388 C53.0653528,38.373338 46.4211469,36.670725 41.5714496,34.2124068 C38.199583,32.5067588 34.0495933,29.5962314 31.3563223,26.6765992 C30.45756,25.7054117 29.0883047,24.0938475 29.1486243,23.0953455 C29.2421197,21.5535854 30.4877198,21.7781725 30.4756559,20.1544685 C30.454544,18.2454781 29.0249691,16.7826271 27.1279171,16.9100954 C24.9533949,17.0527386 23.7108107,19.2227355 24.0576485,21.9420604 C24.5281416,25.5688385 28.0719191,29.3321898 29.9448433,31.256355 C37.1801814,38.7466381 47.9743771,43.9849804 61.5432752,43.6389949 C75.4409151,43.2808695 85.8731931,37.9787931 92.1132576,29.2320361 C93.7237914,26.9770603 97.2464571,21.9056408 95.5484598,18.2029887" id="Fill-1"></path>
        </g>
    </g>
</svg>