<?xml version="1.0" encoding="UTF-8"?>
<svg width="127px" height="108px" viewBox="0 0 127 108" version="1.1" xmlns="http://www.w3.org/2000/svg" xmlns:xlink="http://www.w3.org/1999/xlink">
    <!-- Generator: Sketch 54.1 (76490) - https://sketchapp.com -->
    <title>Combined Shape</title>
    <desc>Created with Sketch.</desc>
    <g id="Page-1" stroke="none" stroke-width="1" fill="none" fill-rule="evenodd">
        <g id="colors" transform="translate(-37.000000, -583.000000)" fill="#111D4A">
            <path d="M131.557421,669.845751 C132.972628,672.909938 130.03664,677.106868 128.69433,678.973007 C123.493509,686.211519 114.79866,690.599333 103.215583,690.895705 C91.9064989,691.182031 82.9100078,686.846961 76.8796691,680.648263 C75.3186685,679.055891 72.3650845,675.941472 71.9729491,672.940077 C71.683875,670.689658 72.7195146,668.893845 74.531884,668.775798 C76.1129941,668.67031 77.3044824,669.880914 77.3220783,671.460728 C77.332133,672.804449 76.2939797,672.618589 76.2160553,673.894496 C76.1657815,674.720821 77.3069961,676.054496 78.0560753,676.858217 C80.3007991,679.274403 83.7596345,681.683054 86.5699382,683.094589 C90.6119493,685.129007 96.1496051,686.538031 102.496669,686.487798 C113.240173,686.402403 121.691194,682.813286 126.597914,676.280542 C127.201199,675.491891 128.468098,673.9171 128.385146,673.20631 C128.317277,672.553286 127.824594,672.709007 127.427431,672.309658 C126.223374,671.096542 126.912125,668.612542 128.867775,668.336263 C130.237735,668.145379 131.145176,668.951612 131.557421,669.845751 Z M103.215835,606.417351 C104.349508,604.998282 104.927657,602.715212 104.910061,599.884607 C104.879897,596.406003 103.389279,594.080235 100.181813,594.107863 C98.2211358,594.120421 96.5445055,594.896514 95.6747693,595.559584 L95.7753169,607.404421 C95.7753169,607.404421 96.6525941,608.594933 98.9928381,608.579863 C100.403017,608.562282 102.087189,607.889165 103.215835,606.417351 Z M101.574396,591.053724 C105.427881,591.021072 109.10038,593.492514 109.14814,599.417445 C109.17579,603.059305 108.107473,605.839677 106.217179,607.751026 C104.442515,609.559398 101.893635,610.561538 99.0632214,610.589165 C97.7033159,610.599212 96.5595877,610.169724 95.790399,609.908514 L95.8381591,615.725445 L95.8658096,618.111491 C96.564615,618.056235 96.9416683,617.995956 97.6555559,617.990933 C98.2513,617.98591 98.4750183,618.420421 98.4750183,618.799677 L98.4850731,619.342189 C97.8264867,619.455212 96.0895279,619.46777 93.7492839,619.492886 C92.7689454,619.49791 90.48903,619.565724 89.076337,619.422561 L89.0662823,618.877538 C89.0662823,618.49577 89.1718572,618.224514 89.762574,618.211956 C90.7454262,618.101445 91.7257647,617.928142 91.7056552,615.808328 L91.5447791,596.295491 C91.5372381,594.667956 90.7127482,594.185724 89.8983132,593.969724 C89.5715337,593.869258 88.3725042,593.879305 88.3725042,593.879305 L88.3146894,593.444793 C88.3121757,593.068049 88.3121757,592.844514 88.7395028,592.681258 C89.2849732,592.455212 91.2406228,591.842375 95.2625244,590.890468 C95.2625244,590.890468 95.5993587,592.131212 95.6571735,593.43977 C97.444406,592.116142 99.3397271,591.068793 101.574396,591.053724 Z M129.09652,591.102449 C129.96877,591.097426 132.794156,590.96431 133.339626,591.069798 L133.344654,591.617333 C133.347167,591.994077 133.347167,592.373333 132.42213,592.383379 C131.936988,592.388403 131.019492,592.825426 131.022006,594.234449 L131.029547,594.83724 L131.145176,608.749147 C131.575017,608.686356 132.233603,608.578356 132.66093,608.575845 C133.317003,608.570821 133.417551,608.950077 133.427605,609.326821 L133.430119,609.871845 C133.05558,610.037612 130.117078,610.017519 129.252369,610.020031 C128.377605,610.027565 125.878999,610.100403 124.783031,609.947193 L124.780517,609.344403 C124.77549,608.960124 124.888606,608.801891 125.592438,608.731565 C126.301299,608.681333 127.005131,608.405054 126.992563,606.777519 L126.912125,596.771193 L118.345474,606.790077 L118.358043,608.854635 C118.792911,608.796868 119.338381,608.686356 119.878824,608.67631 C120.587685,608.671286 120.705828,609.103286 120.705828,609.492589 L120.708342,609.97231 C120.328775,610.138077 117.174096,610.117984 116.304359,610.120496 C115.429596,610.128031 112.279944,610.200868 111.407694,610.052682 L111.402667,609.505147 C111.400153,609.130914 111.395126,608.801891 112.370437,608.796868 C113.40859,608.621054 114.223025,608.22924 114.207943,606.938263 L114.109909,594.272124 L114.092314,592.473798 C113.818322,592.473798 112.790223,592.596868 112.3453,592.601891 C111.538406,592.601891 111.314688,592.054356 111.314688,591.843379 L111.30966,591.245612 C112.068794,591.074821 114.625216,591.217984 116.103264,591.207938 C116.962946,591.202914 120.062324,590.956775 120.828999,591.16524 L120.831512,591.657519 C120.839053,592.034263 120.942115,592.416031 120.017077,592.428589 C119.099581,592.491379 118.227331,592.765147 118.237386,594.287193 L118.322851,604.122728 L126.892015,594.053612 L126.871906,592.36831 C126.605455,592.373333 125.951896,592.486356 125.519541,592.491379 C124.757894,592.501426 124.476361,592.061891 124.476361,591.685147 L124.476361,591.140124 C125.393857,591.022077 128.219243,591.104961 129.09652,591.102449 Z M89.1535073,589.412375 C88.7211528,589.41991 88.6608243,589.040654 88.6608243,588.666421 C88.6608243,588.332375 88.5376536,587.086607 87.9268273,586.215072 C87.3813569,585.356096 86.5644081,584.86884 84.8173946,584.878886 L80.9060953,584.916561 L81.0996493,608.932747 C81.5847912,608.932747 82.022173,608.822235 82.8893955,608.812189 C83.5982557,608.807165 83.8144329,609.299445 83.8244877,609.5707 L83.8270013,610.273956 C83.0678674,610.334235 81.2177927,610.402049 78.875035,610.424654 C78.1159011,610.429677 74.9662494,610.555258 73.8753086,610.354328 L73.8702812,609.869584 C73.8677675,609.269305 74.0839447,609.209026 74.6294151,609.098514 C75.7103012,608.822235 76.5800374,608.593677 76.5599279,606.418607 L76.3889971,585.059724 C74.1040542,584.969305 73.4530089,584.974328 73.3373793,584.981863 C72.0931035,584.986886 71.1177923,585.215445 70.5170208,585.546979 C69.2174438,586.25777 68.4759057,588.066142 68.2019137,588.769398 C68.046065,589.20391 67.9932775,589.585677 67.1838698,589.5907 L66.6308584,589.5907 C66.633372,589.540468 66.7917344,588.2947 66.8420082,588.018421 C67.045617,586.662142 67.352287,584.431817 67.4628892,583.937026 C67.5634368,583.397026 67.89273,583.176003 68.3225707,583.176003 L89.5355879,583.000189 C90.350023,582.992654 90.350023,583.211165 90.3550504,583.58791 C90.3701325,585.220468 90.2871808,588.209305 89.9729697,589.412375 L89.1535073,589.412375 Z M47.0627989,647.530691 C49.0184485,647.51311 51.1927891,646.900272 52.7085433,646.021203 L53.4224308,647.422691 C53.4224308,647.422691 49.805233,650.499435 45.2881348,650.534598 C43.7120521,650.549668 42.2968455,650.180458 41.1455762,649.587714 C38.1995333,648.03804 37.0256407,644.785482 37.0005039,641.585668 C36.9703396,637.391249 38.2950534,634.018133 40.8389062,632.151993 C42.2968455,631.044365 44.0991602,630.426505 46.3212608,630.413947 C47.9023709,630.4039 50.5115795,630.599807 52.0449295,631.785296 C52.758817,632.320272 53.1987125,633.078784 53.2062536,634.163807 C53.2238494,636.456924 51.4315895,636.951714 50.2426148,636.956738 C49.3703649,636.964272 48.6011763,636.544831 48.6011763,636.544831 C48.3598622,633.55097 47.4297974,632.526226 45.7405988,632.536272 C43.5637445,632.553854 41.2536648,635.291528 41.2913701,640.57097 C41.3391302,645.787621 44.0187221,647.558319 47.0627989,647.530691 Z M84.7007595,647.229045 C86.6589228,647.211463 88.828236,646.596114 90.3414764,645.712021 L91.0603914,647.118533 C91.0603914,647.118533 87.4406799,650.197789 82.9286091,650.232951 C81.3500127,650.242998 79.9348061,649.8763 78.7860504,649.286068 C75.8374938,647.736393 74.6686287,644.483835 74.6384644,641.278998 C74.6133275,637.092114 76.04613,633.603463 78.700585,631.734812 C80.161038,630.742719 81.840182,630.124858 83.9667624,630.117324 C85.5403314,630.097231 88.1520538,630.298161 89.6803764,631.478626 C90.3992913,632.018626 90.8391868,632.774626 90.8391868,633.859649 C90.8643237,636.147742 89.0770911,636.645045 87.875548,636.655091 C87.0058118,636.662626 86.2466779,636.238161 86.2466779,636.238161 C85.9978227,633.249324 85.067758,632.219556 83.381073,632.237138 C81.2042188,632.252207 78.886598,634.98737 78.9318444,640.261789 C78.9745771,645.480951 81.6566827,647.256672 84.7007595,647.229045 Z M148.717367,646.549649 C149.629836,645.612812 150.059677,644.362021 150.047108,642.895231 C150.032026,641.157184 149.25781,639.263417 146.703903,639.280998 C145.178094,639.291045 143.981578,639.740626 143.174684,640.122393 L143.224958,647.026858 C143.174684,647.026858 144.054475,647.780347 145.467168,647.767789 C146.550568,647.762765 147.797357,647.421184 148.717367,646.549649 Z M148.31015,636.822114 C149.830931,636.809556 151.585486,637.176254 152.79457,638.52751 C153.609005,639.496998 154.056441,640.79551 154.063983,642.104068 C154.086606,644.490114 153.174137,646.185463 152.100792,647.170021 C150.476949,648.707138 147.98337,649.274765 145.806516,649.292347 C139.544918,649.342579 136.724559,648.978393 136.724559,648.978393 L136.717018,648.438393 C136.709477,647.951138 136.872867,647.732626 137.471125,647.672347 C138.443922,647.556812 139.102509,647.494021 139.082399,645.374207 L138.971797,631.628068 C138.426326,631.633091 137.986431,631.685835 137.443474,631.690858 C136.742155,631.698393 136.631553,631.321649 136.626525,630.939882 L136.621498,630.389835 C137.327845,630.224068 139.499671,630.372254 140.967665,630.354672 C141.847456,630.349649 144.612514,630.118579 145.484764,630.329556 L145.487277,630.914765 C145.487277,631.304068 145.487277,631.575324 144.522021,631.690858 C143.536655,631.80137 143.104301,632.132905 143.119383,633.609742 L143.162116,638.28137 C143.80562,637.9423 145.484764,636.842207 148.31015,636.822114 Z M162.799301,631.543426 C162.0829,631.59617 161.386608,631.982961 161.401691,633.673286 L161.514807,647.748449 C162.216126,647.690682 162.542905,647.630403 162.982801,647.630403 C163.576031,647.620356 163.852537,647.949379 163.857564,648.549658 L163.857564,648.976635 C162.824438,649.152449 160.328346,649.009286 159.458609,649.01431 C158.25958,649.026868 156.193328,649.205193 155.157688,649.051984 L155.150147,648.511984 C155.150147,648.125193 155.150147,647.848914 155.962069,647.79617 C156.831805,647.730868 157.377275,647.346589 157.354652,645.711519 L157.24405,631.480635 C156.975085,631.480635 156.268739,631.543426 155.828843,631.543426 C155.393975,631.543426 155.014408,631.337472 155.006867,630.842682 L155.00184,630.242403 C156.039993,630.074124 158.106245,630.217286 159.305274,630.20724 C160.175011,630.202217 162.613288,630.021379 163.706743,630.172077 L163.714284,630.714589 C163.714284,631.101379 163.714284,631.425379 162.799301,631.543426 Z M61.0967218,634.813063 C60.5085187,635.900598 60.1968213,637.201621 59.9856714,638.407203 C59.9856714,638.407203 66.340276,637.377435 67.1572247,637.201621 L67.154711,636.827389 C67.14717,636.224598 67.0818141,634.923575 66.7022471,634.054551 C66.307598,633.135296 65.7571002,632.379296 64.4499822,632.391854 C63.1478916,632.4019 61.8432872,633.444226 61.0967218,634.813063 Z M65.5509778,647.494272 C67.2929639,647.471668 70.1661099,646.690551 71.415413,645.871761 L72.1318143,647.270738 C69.7010775,649.252412 66.2296737,650.365063 63.8366422,650.387668 C58.6684987,650.430365 55.6445314,646.758365 55.6017987,641.265435 C55.5716345,637.244319 56.906403,633.755668 59.5482897,631.831761 C60.9584689,630.842179 62.8010026,630.279575 64.5982898,630.264505 C69.874522,630.224319 71.7522473,633.793342 71.6290766,638.748784 L59.8876376,640.147761 L59.8976924,640.845993 C59.9278566,644.610924 61.7477671,647.5219 65.5509778,647.494272 Z M110.835327,630.545305 C111.546701,630.545305 111.710091,630.814049 111.717632,631.303817 L111.7302,633.313119 C111.740255,634.727165 111.700036,635.754421 111.594461,636.849491 L111.164621,636.849491 C110.563849,636.859538 110.184282,636.754049 110.176741,635.990514 C110.166686,635.013491 109.661435,632.401398 106.715392,632.429026 L104.488264,632.449119 L104.611435,648.267351 C105.383137,648.146793 105.865765,648.091538 106.242818,648.086514 C107.00698,648.081491 107.122609,648.510979 107.125123,648.892747 L107.130151,649.385026 C106.315715,649.447817 104.571216,649.508096 102.613052,649.5307 C101.74583,649.535724 99.1894086,649.613584 98.0984678,649.513119 L98.0934404,648.91284 C98.0934404,648.48084 98.46798,648.259817 99.0662378,648.259817 C99.5011059,648.252282 100.099364,648.081491 100.318055,647.325491 C100.413575,646.993956 100.468876,646.556933 100.463849,645.908933 L100.35576,632.476747 L98.5609865,632.494328 C96.8743015,632.506886 95.7356006,633.333212 94.9865214,634.373026 C94.6044408,634.978328 94.3958046,635.681584 94.1821411,636.389863 C94.0262924,636.932375 93.7573277,636.987631 93.3174323,636.995165 L92.6689006,637.000189 C92.7166607,636.460189 92.8172082,635.151631 92.9730569,634.22484 C93.1238782,633.134793 93.2797269,632.15777 93.4933904,631.338979 C93.593938,630.901956 93.8729574,630.683445 94.3631267,630.683445 L110.835327,630.545305 Z M128.361266,645.516868 C129.497453,644.092775 130.078116,641.807193 130.055492,638.976589 C130.022814,635.500496 128.539738,633.179751 125.332272,633.202356 C123.374108,633.217426 121.689937,633.991007 120.827742,634.654077 L120.918235,646.448682 C120.918235,646.448682 121.800539,647.689426 124.140783,647.666821 C125.553476,647.659286 127.235134,646.996217 128.361266,645.516868 Z M126.724855,630.148217 C130.580853,630.115565 134.245811,632.581984 134.288544,638.506914 C134.323735,642.151286 133.257931,644.93417 131.372665,646.850542 C129.587946,648.658914 127.04158,649.651007 124.208653,649.676124 C122.84372,649.688682 121.702505,649.321984 120.943372,649.050728 L121.011241,657.200961 C121.715074,657.148217 122.097155,657.090449 122.806015,657.085426 C123.396732,657.075379 123.62045,657.514914 123.627991,657.899193 L123.627991,658.439193 C122.981973,658.547193 121.239987,658.512031 118.897229,658.532124 C117.919404,658.539658 115.636975,658.66524 114.224282,658.517054 L114.216741,657.969519 C114.2092,657.582728 114.319802,657.316496 114.913033,657.308961 C115.895885,657.195938 116.871196,657.022635 116.8536,654.907845 L116.695238,635.392496 C116.68267,633.754914 115.860693,633.280217 115.048772,633.06924 C114.719479,632.968775 113.520449,632.973798 113.520449,632.973798 L113.465148,632.536775 C113.460121,632.157519 113.460121,631.939007 113.897503,631.775751 C114.435432,631.55724 116.386054,630.936868 120.412983,629.987472 C120.412983,629.987472 120.752331,631.225705 120.807632,632.534263 C122.592351,631.215658 124.490186,630.165798 126.724855,630.148217 Z" id="Combined-Shape"></path>
        </g>
    </g>
</svg>