<?xml version="1.0" encoding="UTF-8"?>
<svg width="18px" height="30px" viewBox="0 0 18 30" version="1.1" xmlns="http://www.w3.org/2000/svg" xmlns:xlink="http://www.w3.org/1999/xlink">
    <!-- Generator: Sketch 54.1 (76490) - https://sketchapp.com -->
    <title>Ok</title>
    <desc>Created with Sketch.</desc>
    <g id="Everything" stroke="none" stroke-width="1" fill="none" fill-rule="evenodd">
        <g id="m-00-Landing-v3" transform="translate(-207.000000, -8780.000000)" fill="#F9F7F3">
            <path d="M215.693084,8795.47422 C211.411328,8795.47422 207.929096,8792.05588 207.929096,8787.85366 C207.929096,8783.64997 211.411328,8780.23077 215.693084,8780.23077 C219.975809,8780.23077 223.457072,8783.64997 223.457072,8787.85366 C223.457072,8792.05588 219.975809,8795.47422 215.693084,8795.47422 Z M215.693084,8784.69797 C213.921716,8784.69797 212.478288,8786.11323 212.478288,8787.85366 C212.478288,8789.59262 213.921716,8791.00874 215.693084,8791.00874 C217.465784,8791.00874 218.907759,8789.59262 218.907759,8787.85366 C218.907759,8786.11323 217.465784,8784.69797 215.693084,8784.69797 Z M223.362683,8799.86277 C221.958827,8800.72837 220.434564,8801.34228 218.854272,8801.69575 L223.194477,8805.95729 C224.083671,8806.82843 224.083671,8808.2432 223.194477,8809.1152 C222.306251,8809.9872 220.866696,8809.9872 219.979318,8809.1152 L215.711962,8804.92751 L211.448358,8809.1152 C211.003761,8809.55077 210.421211,8809.76874 209.838661,8809.76874 C209.257079,8809.76874 208.675496,8809.55077 208.2309,8809.1152 C207.342674,8808.2432 207.342674,8806.82942 208.229931,8805.95729 L212.570741,8801.69575 C210.990329,8801.34228 209.466187,8800.72751 208.06233,8799.86277 C206.999848,8799.20517 206.68074,8797.82732 207.350177,8796.78338 C208.017677,8795.73797 209.421533,8795.42338 210.485831,8796.08098 C213.664324,8798.04394 217.758875,8798.04443 220.939182,8796.08098 C222.003359,8795.42338 223.406852,8795.73797 224.075805,8796.78338 C224.745121,8797.82634 224.425045,8799.20517 223.362683,8799.86277 Z" id="Ok"></path>
        </g>
    </g>
</svg>