<?xml version="1.0" encoding="UTF-8"?>
<svg width="27px" height="16px" viewBox="0 0 27 16" version="1.1" xmlns="http://www.w3.org/2000/svg" xmlns:xlink="http://www.w3.org/1999/xlink">
    <!-- Generator: Sketch 54.1 (76490) - https://sketchapp.com -->
    <title>vk</title>
    <desc>Created with Sketch.</desc>
    <g id="Everything" stroke="none" stroke-width="1" fill="none" fill-rule="evenodd">
        <g id="m-00-Landing-v3" transform="translate(-260.000000, -8787.000000)" fill="#F9F7F3">
            <path d="M275.343438,8802.22068 C275.097388,8802.47772 274.616933,8802.52965 274.616933,8802.52965 L273.025715,8802.52965 C273.025715,8802.52965 269.515175,8802.73476 266.422693,8799.60475 C263.050258,8796.18977 260.072274,8789.41432 260.072274,8789.41432 C260.072274,8789.41432 259.900475,8788.96989 260.086625,8788.75591 C260.296278,8788.51412 260.867935,8788.49887 260.867935,8788.49887 L264.671323,8788.47487 C264.671323,8788.47487 265.02948,8788.53184 265.28593,8788.71542 C265.498183,8788.86738 265.616736,8789.14976 265.616736,8789.14976 C265.616736,8789.14976 266.231343,8790.66161 267.0451,8792.02902 C268.634966,8794.69946 269.374575,8795.28318 269.913682,8794.99698 C270.700192,8794.58047 270.464436,8791.22246 270.464436,8791.22246 C270.464436,8791.22246 270.478788,8790.00443 270.068634,8789.4612 C269.750931,8789.04087 269.151923,8788.91796 268.887569,8788.88386 C268.672716,8788.85594 269.024322,8788.37226 269.480025,8788.15581 C270.164932,8787.83036 271.373347,8787.8114 272.801711,8787.82531 C273.915075,8787.83664 274.235378,8787.90381 274.670283,8788.00632 C275.679652,8788.24317 275.648142,8789.00224 275.58013,8790.64049 C275.559747,8791.13046 275.53614,8791.69894 275.53614,8792.35571 C275.53614,8792.50334 275.531772,8792.66065 275.527197,8792.8225 C275.50359,8793.66172 275.476551,8794.62281 276.045297,8794.9806 C276.337001,8795.16285 277.049259,8795.00718 278.831827,8792.06446 C279.676886,8790.66913 280.309692,8789.02943 280.309692,8789.02943 C280.309692,8789.02943 280.449044,8788.73695 280.663897,8788.61158 C280.883949,8788.48373 281.180853,8788.52298 281.180853,8788.52298 L285.183494,8788.49887 C285.183494,8788.49887 286.38671,8788.35835 286.580659,8788.88768 C286.785112,8789.4409 286.131507,8790.73496 284.495987,8792.85464 C282.944598,8794.86584 282.189703,8795.60626 282.258963,8796.26117 C282.309609,8796.73971 282.800358,8797.1725 283.742132,8798.02192 C285.707938,8799.79688 286.234982,8800.73068 286.361543,8800.95506 C286.372047,8800.9736 286.379742,8800.9873 286.385358,8800.99627 C287.266918,8802.41818 285.407498,8802.52965 285.407498,8802.52965 L281.851409,8802.57776 C281.851409,8802.57776 281.088402,8802.72467 280.083192,8802.05358 C279.556564,8801.70228 279.042,8801.12865 278.551978,8800.58222 C277.803426,8799.74774 277.112071,8798.97693 276.521903,8799.15897 C275.53094,8799.46546 275.560891,8801.54074 275.560891,8801.54074 C275.560891,8801.54074 275.56869,8801.98518 275.343438,8802.22068 Z" id="vk"></path>
        </g>
    </g>
</svg>