<?xml version="1.0" encoding="UTF-8"?>
<svg width="36px" height="36px" viewBox="0 0 36 36" version="1.1" xmlns="http://www.w3.org/2000/svg" xmlns:xlink="http://www.w3.org/1999/xlink">
    <!-- Generator: Sketch 54.1 (76490) - https://sketchapp.com -->
    <title>Shape</title>
    <desc>Created with Sketch.</desc>
    <g id="Everything" stroke="none" stroke-width="1" fill="none" fill-rule="evenodd">
        <g id="m-00-Landing-v3" transform="translate(-321.000000, -21.000000)" fill="#17C84C">
            <path d="M322.361644,55.888387 L329.174259,54.1018877 L329.831484,54.4918928 C332.595134,56.1312489 335.763044,56.9986348 338.99302,57 L339.000304,57 C348.921343,57 356.995901,48.9280634 356.999999,39.0065228 C357.00182,34.1985842 355.131363,29.6779538 351.732946,26.2768245 C348.33453,22.8756953 343.815144,21.0016686 339.007436,21 C329.078657,21 321.003947,29.0711782 321.000001,38.9919602 C320.998636,42.3918759 321.950253,45.702899 323.752119,48.5676386 L324.180051,49.2484409 L322.361644,55.888387 Z M347.506543,42.5633801 C347.809,42.7087294 348.013314,42.8067979 348.100513,42.9515426 C348.208872,43.131355 348.208872,43.9947445 347.847674,45.0021533 C347.486111,46.0093202 345.753699,46.9285762 344.920391,47.0522803 C344.173307,47.1634085 343.227868,47.2097219 342.189029,46.8814162 C341.559061,46.6827399 340.751413,46.417435 339.716709,45.9731643 C335.651227,44.2276421 332.903812,40.3097398 332.384514,39.5692079 C332.348151,39.517332 332.322612,39.4810551 332.308505,39.4623121 L332.304978,39.4575961 C332.07549,39.1531122 330.537662,37.1130218 330.537662,35.0017078 C330.537662,33.015549 331.518977,31.9744028 331.970657,31.4951853 C332.001547,31.4624152 332.030005,31.4321844 332.055545,31.4044931 C332.452984,30.9727983 332.922906,30.8649351 333.211986,30.8649351 C333.501066,30.8649351 333.790389,30.8675954 334.043106,30.8801714 C334.074239,30.8817433 334.106711,30.8815015 334.140276,30.8813806 C334.392993,30.8798086 334.707977,30.8779947 335.018826,31.6203405 C335.138374,31.9060813 335.313379,32.3295533 335.49787,32.7761216 C335.870986,33.6795367 336.283384,34.6776344 336.355867,34.8220163 C336.464347,35.0378637 336.536587,35.2896252 336.392108,35.5775427 C336.370339,35.6207122 336.350272,35.6614632 336.331057,35.7002794 C336.222576,35.9207219 336.142675,36.0828795 335.958427,36.2967921 C335.885944,36.3809545 335.811029,36.4715258 335.736114,36.5622179 C335.587014,36.7428768 335.437792,36.9235356 335.307906,37.0521976 C335.090823,37.2671985 334.86474,37.5005797 335.1177,37.9322745 C335.37066,38.3639693 336.241062,39.7758652 337.530307,40.9193122 C338.916115,42.1483726 340.120594,42.6678575 340.731104,42.9312276 C340.850287,42.9826198 340.946849,43.0242173 341.017751,43.0595268 C341.451189,43.2753742 341.70427,43.2393391 341.95723,42.9515426 C342.21019,42.663867 343.04131,41.6924933 343.33039,41.2607985 C343.619349,40.8293456 343.908672,40.9011738 344.306111,41.045072 C344.703672,41.1890912 346.835712,42.2320513 347.269393,42.4478987 C347.354037,42.4901008 347.433209,42.5280706 347.506543,42.5633801 Z" id="Shape"></path>
        </g>
    </g>
</svg>