<?xml version="1.0" encoding="UTF-8"?>
<svg width="31px" height="24px" viewBox="0 0 31 24" version="1.1" xmlns="http://www.w3.org/2000/svg" xmlns:xlink="http://www.w3.org/1999/xlink">
    <!-- Generator: Sketch 54.1 (76490) - https://sketchapp.com -->
    <title>youtube</title>
    <desc>Created with Sketch.</desc>
    <g id="Everything" stroke="none" stroke-width="1" fill="none" fill-rule="evenodd">
        <g id="m-00-Landing-v3" transform="translate(-320.000000, -8783.000000)" fill="#F9F7F3">
            <path d="M347.592598,8784.59914 C348.925541,8784.9712 349.975318,8786.06732 350.331576,8787.45932 C350.978988,8789.98215 350.978988,8795.24615 350.978988,8795.24615 C350.978988,8795.24615 350.978988,8800.50991 350.331576,8803.03298 C349.975318,8804.42498 348.925541,8805.52111 347.592598,8805.89329 C345.176963,8806.56923 335.489494,8806.56923 335.489494,8806.56923 C335.489494,8806.56923 325.802026,8806.56923 323.38627,8805.89329 C322.053205,8805.52111 321.003429,8804.42498 320.64717,8803.03298 C320,8800.50991 320,8795.24615 320,8795.24615 C320,8795.24615 320,8789.98215 320.64717,8787.45932 C321.003429,8786.06732 322.053205,8784.9712 323.38627,8784.59914 C325.802026,8783.92308 335.489494,8783.92308 335.489494,8783.92308 C335.489494,8783.92308 345.176963,8783.92308 347.592598,8784.59914 Z M332.585214,8800.66154 L340.329961,8795.73858 L332.585214,8790.81538 L332.585214,8800.66154 Z" id="youtube"></path>
        </g>
    </g>
</svg>